<svg width="125" height="50" viewBox="0 0 125 50" fill="none" xmlns="http://www.w3.org/2000/svg">
<path d="M8.30641 7.40829C3.71055 11.484 -0.0334035 14.8391 0.00022478 14.8728C0.0226436 14.9066 0.896979 14.9742 1.91704 15.0417L3.78901 15.1543L3.82264 19.2863C3.84506 22.8778 3.82264 23.4295 3.67692 23.4295C3.58724 23.4295 3.34063 23.5871 3.11645 23.7785C2.60081 24.2401 2.29816 25.1746 2.48872 25.7825C2.61202 26.1991 2.90347 26.5932 3.23975 26.7846C3.40789 26.8746 3.40789 26.9647 3.22854 27.8091C3.12766 28.327 3.0604 28.7661 3.09403 28.7886C3.11645 28.8111 3.27338 28.631 3.44152 28.372C3.60966 28.1244 3.76659 27.933 3.80022 27.9555C3.82264 27.9892 3.91232 28.327 3.99078 28.7323L4.1365 29.4529L4.33827 28.631C4.45037 28.1919 4.56246 27.8204 4.58488 27.8204C4.59609 27.8204 4.78665 28.0568 4.97721 28.3495C5.17898 28.6423 5.35833 28.8337 5.38075 28.7661C5.39196 28.7098 5.3247 28.282 5.21261 27.8204L5.02205 26.976L5.49284 26.5144C5.94122 26.0865 5.97485 26.019 5.97485 25.4448C5.97485 24.6792 5.51526 23.8686 4.90995 23.5758L4.51762 23.3844V19.2975V15.2106L4.77544 15.2219C4.90995 15.2219 8.47455 15.4358 12.7005 15.706L20.379 16.1901L20.9394 15.6722C21.2533 15.3907 24.9188 11.8668 29.1111 7.83613C34.3908 2.75844 36.6551 0.506697 36.5093 0.495438C36.386 0.484179 32.5636 0.39411 28.0014 0.304039C23.4391 0.202711 19.0226 0.101381 18.1931 0.067606L16.6799 5.34058e-05L8.30641 7.40829Z" fill="#35485C"/>
<path d="M26.3538 11.7992C23.5626 14.8729 21.2423 17.4398 21.1974 17.5074C21.1526 17.5862 18.7762 17.3498 14.1131 16.7868C10.257 16.3365 7.07356 15.9875 7.03993 16.0212C7.00631 16.0438 7.60041 17.4173 8.35144 19.0611L9.71899 22.0559L10.7839 22.2924C12.611 22.6977 13.25 22.7652 15.447 22.8328C18.5408 22.9228 20.7379 22.6301 23.1591 21.7745C27.6653 20.2095 31.3644 16.9107 33.6175 12.4635L34.1443 11.4389L32.8328 8.81566C32.1154 7.3858 31.5101 6.20364 31.4877 6.20364C31.4653 6.20364 29.1561 8.72559 26.3538 11.7992Z" fill="#35485C"/>
<path d="M82.5356 13.0714V18.363H83.3764H84.2171V13.0714V7.77984H83.3764H82.5356V13.0714Z" fill="#35485C"/>
<path d="M115.603 9.97515V12.1819L115.188 11.7428C114.684 11.2136 114.033 10.9884 113.338 11.0898C111.87 11.3149 111.153 12.6885 111.253 15.0979C111.298 16.1449 111.343 16.3926 111.646 17.0344C112.128 18.0589 112.655 18.4192 113.686 18.4192C114.56 18.4192 115.042 18.1828 115.412 17.5748L115.659 17.1807L115.692 17.7662L115.726 18.3629H116.511H117.284V13.0713V7.77969H116.443H115.603V9.97515ZM114.717 12.4633C115.278 12.7448 115.535 13.4766 115.535 14.7601C115.535 15.6045 115.491 15.9423 115.3 16.3588C115.02 16.9893 114.527 17.2933 113.977 17.192C113.226 17.0456 112.912 16.3363 112.912 14.7488C112.912 13.5216 113.148 12.7898 113.63 12.4971C114.056 12.2381 114.28 12.2269 114.717 12.4633Z" fill="#35485C"/>
<path d="M71.2139 8.84944V9.69385H72.1106H73.0074V8.84944V8.00504H72.1106H71.2139V8.84944Z" fill="#35485C"/>
<path d="M62.4707 13.4654V18.3967L64.3539 18.3404C65.9232 18.2954 66.3268 18.2391 66.8536 18.0364C68.0978 17.5636 68.8713 16.753 69.3421 15.4582C69.6784 14.5125 69.6784 12.5309 69.3421 11.4276C68.9273 10.0878 68.2772 9.41227 66.9433 8.88311C66.4388 8.69171 66.0129 8.63541 64.4099 8.59038L62.4707 8.53409V13.4654ZM66.2931 10.2679C67.2235 10.7858 67.7391 11.9117 67.7391 13.4654C67.7391 14.49 67.5486 15.2443 67.145 15.8635C66.663 16.5728 66.0241 16.9106 65.0377 16.9894L64.2642 17.0457V13.4654V9.88513L65.0377 9.94143C65.5533 9.98646 65.968 10.0878 66.2931 10.2679Z" fill="#35485C"/>
<path d="M44.905 9.25466C41.5534 9.3785 39.5133 9.79508 37.675 10.707C36.8006 11.1461 35.4219 12.1932 35.0968 12.6661L34.839 13.0151L35.2201 12.6998C35.7469 12.2607 37.2602 11.5627 38.2803 11.27C40.7127 10.6057 44.7817 10.5269 50.6779 11.0561L52.1575 11.1912V24.2288V37.2776H43.5263H34.895V25.76C34.895 14.5463 34.8838 14.231 34.682 14.0396C34.5139 13.882 34.413 13.8707 34.2337 13.9721L33.9983 14.0959V25.6811V37.2776H25.367H16.7357V30.8039V24.3301H16.0968C15.7381 24.3301 15.2561 24.2963 15.0319 24.2625L14.606 24.1837V31.7496V39.3042H34.3906H54.1752V24.3976V9.49109L53.8726 9.42354C53.5811 9.36724 47.4272 9.10829 47.1693 9.15333C47.1133 9.15333 46.0932 9.19836 44.905 9.25466Z" fill="#6A869E"/>
<path d="M77.4912 11.2925C77.211 11.4389 76.8747 11.7203 76.7402 11.9342L76.4824 12.317V11.9117C76.4824 11.2024 76.4263 11.1574 75.5632 11.1574C74.8009 11.1574 74.7785 11.1687 74.8458 11.4051C74.8794 11.5514 74.913 13.8595 74.913 16.5278V21.4028H75.7537H76.5944V19.3425V17.2934L76.8074 17.6199C77.5248 18.712 79.2062 18.7345 80.1254 17.6537C81.336 16.2463 81.1679 12.6886 79.8452 11.574C79.1838 11.011 78.2647 10.8984 77.4912 11.2925ZM78.5673 12.4972C78.7915 12.6323 78.9821 12.88 79.0717 13.1502C79.2623 13.7019 79.2735 15.7059 79.0829 16.2351C78.7467 17.2146 77.7602 17.5073 77.1549 16.8205C76.7402 16.3589 76.5944 15.8185 76.5944 14.7489C76.5944 12.8349 77.48 11.8329 78.5673 12.4972Z" fill="#35485C"/>
<path d="M87.8932 11.1913C86.2118 11.6754 85.3935 13.443 85.7859 15.7398C85.9764 16.922 86.4472 17.6425 87.2879 18.0816C87.882 18.3856 88.0614 18.4194 88.9133 18.4081C89.7316 18.4081 89.967 18.3518 90.4714 18.0929C91.6932 17.4624 92.2873 15.7398 91.951 13.7808C91.7605 12.6211 91.2897 11.878 90.4938 11.4727C89.7428 11.0899 88.6779 10.9774 87.8932 11.1913ZM89.4738 12.4522C89.9558 12.6999 90.1912 13.3192 90.2472 14.4788C90.3033 15.7285 90.1463 16.3703 89.6531 16.8657C89.1375 17.3836 88.5994 17.3836 88.0838 16.8657C87.6242 16.4041 87.4673 15.8636 87.4673 14.7603C87.4673 13.6569 87.6242 13.1165 88.0838 12.6549C88.4985 12.2383 88.9469 12.1708 89.4738 12.4522Z" fill="#35485C"/>
<path d="M96.0989 11.2926C95.8186 11.4389 95.4936 11.7091 95.3591 11.9118L95.1124 12.2721L95.0452 11.7204L94.9667 11.1575H94.1148C93.2965 11.1575 93.2741 11.1687 93.3414 11.4051C93.375 11.5515 93.4086 13.1728 93.4086 15.0079V18.363H94.2493H95.09V15.9424C95.09 13.3416 95.1461 13.0602 95.6729 12.6886C96.0428 12.4297 96.693 12.4635 96.9508 12.7449C97.1414 12.9588 97.1638 13.2065 97.1974 15.6722L97.231 18.363H98.0717H98.9012V16.0212C98.9012 13.9834 98.9349 13.6344 99.1142 13.2178C99.2375 12.9588 99.4281 12.6999 99.5514 12.6323C99.9325 12.4297 100.527 12.486 100.762 12.7449C100.953 12.9588 100.975 13.2065 101.009 15.6722L101.042 18.363H101.883H102.724L102.69 15.402C102.656 12.5423 102.645 12.4409 102.399 11.9906C102.074 11.4389 101.67 11.18 100.986 11.0899C100.314 10.9886 99.585 11.27 99.1254 11.7992C98.9349 12.0131 98.7667 12.182 98.7443 12.1595C98.7331 12.137 98.6322 11.9681 98.5201 11.7992C98.2847 11.4164 97.5449 11.0561 96.9956 11.0449C96.7714 11.0449 96.3679 11.1575 96.0989 11.2926Z" fill="#35485C"/>
<path d="M106.008 11.1574C105.761 11.2024 105.369 11.3263 105.133 11.4276L104.718 11.5965L104.797 12.1932C104.842 12.5197 104.887 12.8012 104.898 12.8237C104.92 12.8462 105.144 12.7562 105.413 12.621C106.075 12.2833 107.05 12.2045 107.521 12.4409C107.88 12.6323 108.205 13.184 108.205 13.6118C108.205 13.8032 108.081 13.837 107.207 13.9045C104.931 14.0734 104.057 14.7377 104.057 16.2689C104.057 17.057 104.259 17.5524 104.718 17.9464C105.582 18.667 106.893 18.6332 107.745 17.8451L108.171 17.4623L108.249 17.9126L108.317 18.363H109.079H109.83L109.774 15.5258C109.718 12.7449 109.707 12.6661 109.438 12.1707C109.057 11.4839 108.395 11.1574 107.285 11.1011C106.837 11.0786 106.265 11.1011 106.008 11.1574ZM108.171 15.5033C108.081 16.4152 107.823 16.8881 107.263 17.1696C106.422 17.5861 105.626 17.0457 105.626 16.0775C105.626 15.3006 106.434 14.7827 107.689 14.7715L108.238 14.7602L108.171 15.5033Z" fill="#35485C"/>
<path d="M120.849 11.1913C119.168 11.6754 118.35 13.443 118.742 15.7398C118.932 16.922 119.403 17.6425 120.244 18.0816C120.838 18.3856 121.017 18.4194 121.869 18.4081C122.688 18.4081 122.923 18.3518 123.427 18.0929C124.649 17.4624 125.243 15.7398 124.907 13.7808C124.717 12.6211 124.246 11.878 123.45 11.4727C122.699 11.0899 121.634 10.9774 120.849 11.1913ZM122.43 12.4522C122.912 12.6999 123.147 13.3192 123.203 14.4788C123.259 15.7285 123.102 16.3703 122.609 16.8657C122.094 17.3836 121.555 17.3836 121.04 16.8657C120.58 16.4041 120.423 15.8636 120.423 14.7603C120.423 13.6569 120.58 13.1165 121.04 12.6549C121.455 12.2383 121.903 12.1708 122.43 12.4522Z" fill="#35485C"/>
<path d="M71.3257 14.7602V18.363H72.1664H73.0071V14.7602V11.1575H72.1664H71.3257V14.7602Z" fill="#35485C"/>
<path d="M55.52 14.0396V15.0979L55.9572 15.5033C56.2038 15.7172 56.5177 16.1338 56.6634 16.4265L56.9212 16.9556V28.3832C56.9212 38.6962 56.8988 39.8446 56.7419 40.2162C56.4504 40.8467 55.8563 41.4546 55.2398 41.7361L54.6793 42.0063H34.5136C19.3808 42.0063 14.2469 41.9725 13.9106 41.8712C13.3502 41.7023 12.5431 40.993 12.218 40.385L11.9714 39.9234L11.9378 31.9635L11.9041 23.9923L11.6575 23.9473C11.523 23.9135 11.2092 23.8572 10.9625 23.8235C10.7159 23.7784 10.4021 23.7221 10.2564 23.6884L9.99854 23.6321L10.0322 32.0536L10.0658 40.4864L10.4357 41.252C11.1307 42.6706 12.4758 43.6726 14.0451 43.9203C14.4935 43.9878 17.8339 44.0329 22.5979 44.0329H30.4109V45.9469V47.8608H27.1378H23.8534L23.0351 48.9304L22.2168 50H34.3903C41.5643 50 46.5525 49.955 46.5301 49.8987C46.5189 49.8424 46.1602 49.3583 45.7454 48.8291L44.9832 47.8608L41.71 47.8383L38.4256 47.8045L38.392 45.9131L38.3696 44.0329H46.2386C51.1596 44.0329 54.3879 43.9878 54.8363 43.909C56.7643 43.605 58.3672 42.0851 58.7595 40.2274C58.9389 39.383 58.9277 17.3722 58.7595 16.5391C58.4457 15.0642 57.3472 13.7356 55.9348 13.1502L55.52 12.9701V14.0396Z" fill="#35485C"/>
<path d="M104.954 27.1449V32.4365H105.795H106.636V27.1449V21.8533H105.795H104.954V27.1449Z" fill="#35485C"/>
<path d="M62.4707 27.539V32.4365H63.3675H64.2642V27.539V22.6414H63.3675H62.4707V27.539Z" fill="#35485C"/>
<path d="M74.969 23.4744L74.1843 23.7221L74.1507 24.4764L74.1171 25.2307H73.5678H73.0073V25.85V26.4692H73.5678H74.1283V28.8561C74.1283 31.5356 74.1955 31.8509 74.8793 32.2449C75.3389 32.5151 76.202 32.6052 76.7961 32.4476L77.2669 32.3125V31.727V31.1416L76.7176 31.1754C75.8545 31.2429 75.8097 31.1303 75.8097 28.5858V26.4692H76.5383H77.2669V25.85V25.2307H76.5383H75.8209L75.7873 24.2287L75.7536 23.2267L74.969 23.4744Z" fill="#35485C"/>
<path d="M68.905 25.321C68.6584 25.4449 68.2885 25.7376 68.0979 25.974L67.7392 26.4131V25.8164V25.2309H66.9546H66.1699V28.8337V32.4365H66.9994H67.8401L67.8738 29.9821C67.9074 27.7642 67.9298 27.5052 68.1316 27.1449C68.5463 26.4356 69.4543 26.3456 69.9139 26.9648C70.1381 27.2575 70.1493 27.4489 70.1829 29.8583L70.2165 32.4365H71.0572H71.9092L71.8643 29.5881C71.8307 26.8184 71.8195 26.7396 71.5505 26.1879C71.2142 25.5237 70.777 25.2309 69.9587 25.1634C69.5215 25.1184 69.2413 25.1634 68.905 25.321Z" fill="#35485C"/>
<path d="M80.4504 25.2195C79.0268 25.5797 78.2197 26.942 78.2197 28.9574C78.2197 29.9819 78.2534 30.0945 78.6121 30.815C79.0829 31.7383 79.7218 32.2336 80.7082 32.4363C81.4144 32.5939 82.4905 32.5151 83.1631 32.2787C83.6003 32.1323 83.6003 32.1323 83.6339 31.4455L83.6675 30.7588L83.1295 31.0064C82.4345 31.3217 81.2014 31.3442 80.6522 31.0515C80.2486 30.8263 79.8563 30.117 79.8451 29.5878V29.2839H81.9749H84.1047V28.7997C84.1047 28.1918 83.8357 26.9195 83.6227 26.503C83.3873 26.0526 82.8829 25.5685 82.4457 25.3771C81.9973 25.1857 80.91 25.0956 80.4504 25.2195ZM81.8964 26.5593C82.1991 26.8182 82.4233 27.3924 82.4233 27.8765V28.2706H81.1342H79.8451V27.9441C79.8451 27.2911 80.2823 26.5705 80.7979 26.3453C81.1006 26.2102 81.6274 26.3116 81.8964 26.5593Z" fill="#35485C"/>
<path d="M86.9856 25.2759C86.739 25.366 86.4252 25.5574 86.2682 25.7037C85.2818 26.627 84.9455 29.1264 85.5732 30.8152C85.9432 31.7947 86.8399 32.4365 87.86 32.4365C88.3644 32.4365 89.1603 31.9861 89.4517 31.547L89.7095 31.1642V31.896C89.7095 33.9339 88.5774 34.6657 86.5148 33.9676C86.0889 33.81 85.719 33.6974 85.719 33.7087C85.7078 33.7199 85.6629 34.0465 85.6181 34.4292L85.5396 35.1273L86.201 35.3187C86.6157 35.4538 87.2434 35.5213 87.9721 35.5213C88.9585 35.5326 89.1715 35.4988 89.7207 35.2399C90.0906 35.0597 90.483 34.767 90.6511 34.5418C91.2788 33.7199 91.3125 33.4047 91.3685 29.1376L91.4134 25.2309H90.6735H89.9449L89.8665 25.7938L89.788 26.3567L89.5302 25.9965C89.3844 25.7938 89.1154 25.5461 88.9249 25.4223C88.4877 25.1408 87.5237 25.0732 86.9856 25.2759ZM89.1378 26.8184C89.5638 27.2349 89.7544 28.0568 89.6871 29.1489C89.6086 30.5112 89.1378 31.1417 88.2187 31.1417C87.6918 31.1417 87.3331 30.7589 87.1426 30.0046C86.9856 29.3628 86.9856 28.0118 87.1538 27.4601C87.4676 26.4018 88.4204 26.0978 89.1378 26.8184Z" fill="#35485C"/>
<path d="M95.684 25.3323C95.3926 25.4674 95.1011 25.7263 94.8994 26.0303L94.5855 26.5144L94.5519 25.8727L94.5182 25.2309H93.7224C92.9601 25.2309 92.9377 25.2422 93.005 25.4786C93.0386 25.625 93.0722 27.2463 93.0722 29.0814V32.4365H93.9129H94.7536V30.151C94.7536 28.1582 94.776 27.8204 94.9554 27.4939C95.202 27.0436 95.7737 26.6946 96.2893 26.6946H96.6592V25.9065C96.6592 25.1634 96.648 25.1184 96.4126 25.1184C96.2669 25.1184 95.9418 25.2197 95.684 25.3323Z" fill="#35485C"/>
<path d="M99.3943 25.2309C99.1477 25.2759 98.7553 25.3998 98.52 25.5011L98.1052 25.67L98.1837 26.2667C98.2285 26.5932 98.2733 26.8747 98.2846 26.8972C98.307 26.9197 98.5312 26.8296 98.8002 26.6945C99.4615 26.3568 100.437 26.278 100.908 26.5144C101.266 26.7058 101.591 27.2575 101.591 27.6853C101.591 27.8767 101.468 27.9105 100.594 27.978C98.3182 28.1469 97.4438 28.8112 97.4438 30.3424C97.4438 31.1305 97.6456 31.6259 98.1052 32.0199C98.9683 32.7405 100.28 32.7067 101.132 31.9186L101.558 31.5358L101.636 31.9861L101.703 32.4365H102.466H103.217L103.161 29.5993C103.105 26.8184 103.093 26.7396 102.824 26.2442C102.443 25.5574 101.782 25.2309 100.672 25.1746C100.224 25.1521 99.6521 25.1746 99.3943 25.2309ZM101.558 29.5768C101.468 30.4887 101.21 30.9616 100.65 31.2431C99.809 31.6596 99.0132 31.1192 99.0132 30.151C99.0132 29.3741 99.8202 28.8562 101.076 28.8449L101.625 28.8337L101.558 29.5768Z" fill="#35485C"/>
<path d="M94.7533 36.7484C92.2087 37.3339 90.7515 39.6532 91.155 42.4904C91.4689 44.7421 92.8813 46.1832 95.112 46.5322C96.0087 46.6674 97.5332 46.5322 98.004 46.2846C98.2282 46.1607 98.3179 45.6766 98.1273 45.564C98.0825 45.5302 97.6565 45.5865 97.2081 45.6766C95.1232 46.1269 93.296 45.3839 92.5226 43.7739C91.6483 41.995 91.9621 39.7095 93.24 38.471C93.991 37.7392 94.7645 37.469 96.0984 37.469C96.7598 37.469 97.3426 37.5365 97.6341 37.6379C98.1497 37.8293 98.2282 37.773 98.2282 37.2213C98.2282 37.0074 98.1385 36.9286 97.8134 36.8385C97.1072 36.6358 95.4258 36.5908 94.7533 36.7484Z" fill="#35485C"/>
<path d="M80.4053 37.1087V37.5028H81.8065H83.2076V42.0063V46.5098H83.656H84.1044L84.1268 42.0288L84.1604 37.5591L85.5952 37.5253L87.0188 37.4915V37.1087V36.7147H83.7121H80.4053V37.1087Z" fill="#35485C"/>
<path d="M88.3643 41.6122V46.5098H88.8126H89.261V41.6122V36.7147H88.8126H88.3643V41.6122Z" fill="#35485C"/>
<path d="M64.1183 39.3718C62.6387 39.8447 61.7755 41.8037 62.1342 43.8978C62.3248 45.0688 62.7956 45.7893 63.6363 46.2284C64.2304 46.5324 64.4097 46.5662 65.2617 46.5662C65.7885 46.5549 66.4947 46.4874 66.8198 46.4085C67.3915 46.2622 67.4027 46.2622 67.4027 45.8343V45.4065L66.7077 45.6317C64.6451 46.2734 63.2103 45.4515 63.0086 43.5263L62.9749 43.1885L65.4298 43.1548L67.8735 43.1323L67.8286 42.1978C67.7726 41.2408 67.526 40.5427 67.0215 40.0023C66.4162 39.3268 65.1159 39.0453 64.1183 39.3718ZM66.1136 40.25C66.4835 40.4977 66.8422 41.2183 66.9207 41.9051L66.9879 42.4567H64.9702H62.9525L63.0422 41.9163C63.1543 41.3421 63.5915 40.6328 64.051 40.2838C64.6227 39.8672 65.4971 39.8447 66.1136 40.25Z" fill="#35485C"/>
<path d="M72.0434 39.2929C71.4941 39.428 70.956 39.8108 70.7094 40.2274L70.4852 40.5989L70.4516 39.9459L70.418 39.3042H70.0369H69.6445V42.907V46.5098H70.0817H70.5301L70.5637 44.0103C70.5973 41.5109 70.5973 41.4996 70.9 40.9817C71.2475 40.385 71.5838 40.1373 72.1891 40.0022C73.1195 39.7996 73.9377 40.2387 74.2292 41.0943C74.3077 41.3308 74.3525 42.4116 74.3525 43.9878V46.5098H74.8121H75.2717L75.2268 43.7289C75.1932 41.0718 75.182 40.9142 74.9354 40.3963C74.5879 39.6982 73.9265 39.3042 73.041 39.2366C72.6823 39.2254 72.2339 39.2479 72.0434 39.2929Z" fill="#35485C"/>
<path d="M101.67 39.3492C100.37 39.6983 99.8429 41.1506 100.661 42.1189C100.818 42.3103 101.435 42.7156 102.04 43.0196C103.251 43.6276 103.721 44.0779 103.721 44.6408C103.721 45.6654 102.41 46.1495 100.863 45.6766C100.56 45.5753 100.291 45.4965 100.291 45.4965C100.28 45.4965 100.246 45.6766 100.224 45.8906C100.179 46.2508 100.213 46.2959 100.583 46.4197C100.796 46.4873 101.435 46.5548 101.984 46.5548C102.847 46.5661 103.071 46.521 103.553 46.2846C104.304 45.9131 104.618 45.4177 104.618 44.6296C104.618 43.56 104.226 43.1097 102.645 42.3891C101.547 41.8825 101.143 41.5222 101.143 41.0493C101.143 40.6215 101.412 40.2274 101.805 40.0811C102.197 39.9234 103.307 39.9347 103.789 40.0923C104.248 40.2499 104.259 40.2499 104.304 39.8108C104.338 39.4843 104.315 39.4731 103.721 39.338C102.914 39.1691 102.331 39.1804 101.67 39.3492Z" fill="#35485C"/>
</svg>
