<svg width="21" height="19" viewBox="0 0 21 19" fill="none" xmlns="http://www.w3.org/2000/svg">
<path d="M15.3278 5.20538C15.1849 5.16197 15.0551 5.08446 14.9501 4.97978C14.8452 4.87511 14.7682 4.74652 14.7262 4.60551C14.2853 3.21397 13.3843 2.0067 12.1658 1.17493C10.9474 0.343162 9.48129 -0.0655409 7.99966 0.0135614C6.51803 0.0926637 5.10563 0.655048 3.98619 1.61163C2.86675 2.56821 2.10428 3.8643 1.81955 5.29458C1.52663 6.74038 1.76268 8.24134 2.48613 9.53294C1.64343 9.96028 0.95817 10.6361 0.526579 11.4656C0.0949875 12.295 -0.0612604 13.2364 0.0797761 14.1576C0.296957 15.2278 0.880349 16.1929 1.73307 16.8926C2.5858 17.5923 3.65654 17.9844 4.76749 18.0039H12.3498C16.5768 18.0039 19.7247 15.5267 20.0063 11.979C20.1324 10.4948 19.7368 9.01293 18.8855 7.78037C18.0342 6.54781 16.7785 5.639 15.3278 5.20538ZM15.5844 14.5234L14.2629 15.6805C14.0365 15.9007 13.768 16.0747 13.4728 16.1925C13.1777 16.3104 12.8617 16.3697 12.5431 16.3672C12.2127 16.3678 11.8854 16.3044 11.58 16.1805C11.2746 16.0566 10.9971 15.8748 10.7634 15.6454L9.47688 14.5209C9.39514 14.4494 9.32853 14.3629 9.28086 14.2661C9.23319 14.1694 9.20539 14.0643 9.19905 13.957C9.18624 13.7403 9.2616 13.5275 9.40855 13.3654C9.55551 13.2032 9.76202 13.1051 9.98266 13.0925C10.0919 13.0863 10.2013 13.1012 10.3047 13.1365C10.4081 13.1718 10.5033 13.2268 10.5851 13.2983L11.6974 14.2754V8.18344C11.6974 7.96639 11.7852 7.75824 11.9415 7.60476C12.0977 7.45129 12.3097 7.36507 12.5306 7.36507C12.7516 7.36507 12.9636 7.45129 13.1198 7.60476C13.2761 7.75824 13.3639 7.96639 13.3639 8.18344V14.2762L14.4762 13.3007C14.6413 13.1564 14.858 13.0824 15.0786 13.095C15.2993 13.1075 15.5058 13.2057 15.6527 13.3678C15.7997 13.53 15.875 13.7428 15.8622 13.9595C15.8494 14.1762 15.7495 14.379 15.5844 14.5234Z" fill="#6A869E"/>
</svg>
