<svg width="25" height="25" viewBox="0 0 25 25" fill="none" xmlns="http://www.w3.org/2000/svg">
<path d="M23.4883 11.3945L14.9903 2.20184C14.6157 1.79637 14.1614 1.47282 13.6559 1.25153C13.1504 1.03025 12.6046 0.916016 12.0528 0.916016C11.501 0.916016 10.9552 1.03025 10.4496 1.25153C9.9441 1.47282 9.48979 1.79637 9.11527 2.20184L0.63227 11.3915C0.259982 11.7666 0.051114 12.2738 0.0512696 12.8024V21.9141C0.0512696 22.7102 0.36734 23.4737 0.929949 24.0367C1.49256 24.5997 2.25562 24.9159 3.05127 24.9159H7.05127V18.9122C7.05462 18.0134 7.30059 17.1323 7.76319 16.3619C8.22578 15.5915 8.8878 14.9604 9.67927 14.5355C9.72927 14.5075 9.77927 14.4795 9.83127 14.4524C10.018 14.3594 10.2104 14.2782 10.4073 14.2093C10.5423 14.1603 10.6793 14.1182 10.8203 14.0812C10.9613 14.0442 11.1313 14.0112 11.2913 13.9811C11.3793 13.9671 11.4613 13.9371 11.5513 13.9281C11.7053 13.9131 11.8513 13.9101 12.0063 13.9091C12.0223 13.9091 12.0363 13.9041 12.0513 13.9041H12.0693C12.3788 13.9065 12.6875 13.9376 12.9913 13.9972C13.0253 14.0042 13.0593 14.0072 13.0913 14.0142C13.3763 14.0764 13.6554 14.1635 13.9253 14.2743C13.9633 14.2893 14.0013 14.3033 14.0393 14.3204C14.2975 14.4325 14.5457 14.5664 14.7813 14.7206L14.8923 14.7947C15.1209 14.9537 15.336 15.1314 15.5353 15.326C15.5673 15.357 15.5973 15.388 15.6283 15.42C15.8235 15.6207 16.0021 15.8368 16.1623 16.0664L16.2303 16.1665C16.3876 16.4056 16.5245 16.6577 16.6393 16.92C16.6523 16.952 16.6633 16.984 16.6763 17.02C16.7905 17.2966 16.8796 17.5829 16.9423 17.8756C16.9423 17.8976 16.9493 17.9206 16.9533 17.9426C17.0176 18.2618 17.0504 18.5866 17.0513 18.9122V24.9159H21.0513C21.8469 24.9159 22.61 24.5997 23.1726 24.0367C23.7352 23.4737 24.0513 22.7102 24.0513 21.9141V12.7874C24.0515 12.2676 23.8496 11.768 23.4883 11.3945Z" fill="#35485C"/>
<path d="M12.0513 15.9104C11.2556 15.9104 10.4926 16.2267 9.92995 16.7896C9.36734 17.3526 9.05127 18.1161 9.05127 18.9123V24.916H15.0513V18.9123C15.0513 18.1161 14.7352 17.3526 14.1726 16.7896C13.61 16.2267 12.8469 15.9104 12.0513 15.9104Z" fill="#35485C"/>
</svg>
