<svg width="21" height="21" viewBox="0 0 21 21" fill="none" xmlns="http://www.w3.org/2000/svg">
<g clip-path="url(#clip0)">
<path d="M20.0407 11.1031C20.0407 10.2837 19.9727 9.68575 19.8254 9.06567H10.2505V12.764H15.8708C15.7575 13.6831 15.1456 15.0672 13.7858 15.9973L13.7668 16.1211L16.7942 18.4129L17.0039 18.4334C18.9302 16.6949 20.0407 14.137 20.0407 11.1031Z" fill="#4285F4"/>
<path d="M10.2506 20.8475C13.0041 20.8475 15.3156 19.9617 17.0041 18.4336L13.7859 15.9975C12.9248 16.5844 11.769 16.9941 10.2506 16.9941C7.55374 16.9941 5.26482 15.2556 4.44888 12.8528L4.32928 12.8627L1.1813 15.2434L1.14014 15.3553C2.81716 18.6107 6.26191 20.8475 10.2506 20.8475Z" fill="#34A853"/>
<path d="M4.44875 12.8526C4.23346 12.2325 4.10886 11.5681 4.10886 10.8816C4.10886 10.195 4.23346 9.53069 4.43742 8.91061L4.43172 8.77855L1.24431 6.35962L1.14002 6.40809C0.448846 7.75901 0.0522461 9.27603 0.0522461 10.8816C0.0522461 12.4872 0.448846 14.0041 1.14002 15.355L4.44875 12.8526Z" fill="#FBBC05"/>
<path d="M10.2505 4.76937C12.1655 4.76937 13.4572 5.57769 14.1938 6.25319L17.0719 3.50708C15.3043 1.90151 13.004 0.916016 10.2505 0.916016C6.26187 0.916016 2.81715 3.15273 1.14014 6.40815L4.43753 8.91067C5.26479 6.50785 7.55369 4.76937 10.2505 4.76937Z" fill="#EB4335"/>
</g>
<defs>
<clipPath id="clip0">
<rect width="20" height="20" fill="white" transform="translate(0.0512695 0.916016)"/>
</clipPath>
</defs>
</svg>
